<?xml version="1.0" encoding="UTF-8" standalone="no" ?>
<!DOCTYPE svg PUBLIC "-//W3C//DTD SVG 1.1//EN" "http://www.w3.org/Graphics/SVG/1.1/DTD/svg11.dtd">
<svg xmlns="http://www.w3.org/2000/svg" xmlns:xlink="http://www.w3.org/1999/xlink" version="1.1" width="500" height="500" viewBox="0 0 500 500" xml:space="preserve">
<desc>Created with Fabric.js 3.6.3</desc>
<defs>
</defs>
<rect x="0" y="0" width="100%" height="100%" fill="#5E0042"></rect>
<g transform="matrix(0 -0.3298293481090384 0.40339008474746246 0 252.55315431912027 253.81599092016847)"  >
<path style="stroke: none; stroke-width: 0; stroke-dasharray: none; stroke-linecap: butt; stroke-dashoffset: 0; stroke-linejoin: miter; stroke-miterlimit: 4; fill: rgb(255,255,255); fill-rule: nonzero; opacity: 1;"  transform=" translate(-500, -500)" d="M 923 247 l 0 506 l -846 0 l 0 -506 l 846 0 z m -6 7 l -834 0 l 0 492 l 834 0 l 0 -492 z" stroke-linecap="round" />
</g>
<g transform="matrix(-0.02712749935920774 -0.322673361058746 0.39463812183325014 -0.03079361599953774 249.99999999999997 244.81599092016822)"  >
<path style="stroke: none; stroke-width: 0; stroke-dasharray: none; stroke-linecap: butt; stroke-dashoffset: 0; stroke-linejoin: miter; stroke-miterlimit: 4; fill: rgb(255,255,255); fill-rule: nonzero; opacity: 1;"  transform=" translate(-500, -500)" d="M 923 247 l 0 506 l -846 0 l 0 -506 l 846 0 z m -6 7 l -834 0 l 0 492 l 834 0 l 0 -492 z" stroke-linecap="round" />
</g>
<g transform="matrix(1 0 0 1 250.25000000000003 317.02847223604795)" style=""  ><path fill="#ffffff" opacity="1" d="M-44.81-5.07L-54.20-5.07L-54.20-7.34L-51.28-7.84L-51.28-28.45L-54.20-28.95L-54.20-31.24L-44.81-31.24L-44.81-28.95L-47.74-28.45L-47.74-7.84L-44.81-7.34L-44.81-5.07Z"/><path fill="#ffffff" opacity="1" d="M-29.55-4.70L-29.55-4.70Q-32.20-4.70-34.16-5.93Q-36.11-7.16-37.19-9.35Q-38.27-11.54-38.27-14.42L-38.27-14.42L-38.27-15.17Q-38.27-17.94-37.23-20.13Q-36.19-22.32-34.23-23.60Q-32.27-24.87-29.55-24.87L-29.55-24.87Q-27.20-24.87-25.43-24.10Q-23.66-23.33-22.46-21.98L-22.46-21.98L-22.37-17.31L-25.13-17.31L-25.75-20.71Q-26.36-21.33-27.27-21.71Q-28.19-22.09-29.43-22.09L-29.43-22.09Q-31.01-22.09-32.21-21.16Q-33.40-20.22-34.07-18.66Q-34.73-17.09-34.73-15.17L-34.73-15.17L-34.73-14.42Q-34.73-12.30-34.11-10.73Q-33.49-9.17-32.33-8.32Q-31.17-7.46-29.57-7.46L-29.57-7.46Q-27.78-7.46-26.59-8.45Q-25.40-9.44-25.13-11.16L-25.13-11.16L-21.95-11.16L-21.92-11.06Q-22.01-9.39-22.91-7.93Q-23.80-6.47-25.47-5.59Q-27.13-4.70-29.55-4.70Z"/><path fill="#ffffff" opacity="1" d="M-6.25-4.70L-6.25-4.70Q-8.95-4.70-10.90-5.96Q-12.85-7.23-13.91-9.47Q-14.97-11.70-14.97-14.58L-14.97-14.58L-14.97-14.97Q-14.97-17.85-13.91-20.09Q-12.85-22.32-10.90-23.60Q-8.95-24.87-6.29-24.87L-6.29-24.87Q-3.59-24.87-1.64-23.60Q0.31-22.32 1.37-20.10Q2.43-17.87 2.43-14.97L2.43-14.97L2.43-14.58Q2.43-11.69 1.37-9.45Q0.31-7.21-1.64-5.95Q-3.58-4.70-6.25-4.70ZM-6.25-7.46L-6.25-7.46Q-4.56-7.46-3.42-8.39Q-2.28-9.31-1.70-10.92Q-1.11-12.53-1.11-14.58L-1.11-14.58L-1.11-14.97Q-1.11-17.02-1.70-18.63Q-2.28-20.24-3.43-21.16Q-4.58-22.09-6.29-22.09L-6.29-22.09Q-7.98-22.09-9.13-21.16Q-10.28-20.24-10.85-18.63Q-11.43-17.02-11.43-14.97L-11.43-14.97L-11.43-14.58Q-11.43-12.53-10.85-10.92Q-10.28-9.31-9.12-8.39Q-7.96-7.46-6.25-7.46Z"/><path fill="#ffffff" opacity="1" d="M18.23-5.07L8.84-5.07L8.84-7.34L11.77-7.84L11.77-21.73L8.84-22.23L8.84-24.52L14.93-24.52L15.18-21.62Q16.15-23.17 17.61-24.02Q19.08-24.87 20.95-24.87L20.95-24.87Q24.09-24.87 25.82-23.03Q27.54-21.19 27.54-17.35L27.54-17.35L27.54-7.84L30.47-7.34L30.47-5.07L21.07-5.07L21.07-7.34L24.00-7.84L24.00-17.27Q24.00-19.84 22.99-20.92Q21.97-22.00 19.89-22.00L19.89-22.00Q18.36-22.00 17.18-21.26Q16.01-20.53 15.31-19.25L15.31-19.25L15.31-7.84L18.23-7.34L18.23-5.07Z"/><path fill="#ffffff" opacity="1" d="M42.94-4.70L42.94-4.70Q39.90-4.70 38.32-6.18Q36.74-7.66 36.74-10.36L36.74-10.36Q36.74-12.21 37.75-13.58Q38.77-14.96 40.69-15.72Q42.61-16.48 45.29-16.48L45.29-16.48L48.76-16.48L48.76-18.39Q48.76-20.15 47.69-21.12Q46.62-22.09 44.68-22.09L44.68-22.09Q43.46-22.09 42.56-21.79Q41.66-21.50 40.93-20.98L40.93-20.98L40.55-18.26L37.82-18.26L37.82-22.72Q39.13-23.78 40.87-24.33Q42.61-24.87 44.73-24.87L44.73-24.87Q48.27-24.87 50.29-23.19Q52.30-21.50 52.30-18.35L52.30-18.35L52.30-8.99Q52.30-8.61 52.31-8.25Q52.32-7.89 52.35-7.53L52.35-7.53L54.24-7.34L54.24-5.07L49.16-5.07Q48.99-5.86 48.90-6.49Q48.81-7.12 48.78-7.75L48.78-7.75Q47.75-6.44 46.22-5.57Q44.68-4.70 42.94-4.70ZM43.46-7.66L43.46-7.66Q45.22-7.66 46.68-8.51Q48.13-9.35 48.76-10.54L48.76-10.54L48.76-14.06L45.17-14.06Q42.72-14.06 41.50-12.89Q40.28-11.72 40.28-10.28L40.28-10.28Q40.28-9.01 41.07-8.33Q41.86-7.66 43.46-7.66Z"/><path fill="#ffffff" opacity="1" d="M-55.50 28.19L-67.89 28.19L-67.89 25.93L-64.97 25.43L-64.97 4.82L-67.89 4.31L-67.89 2.03L-64.97 2.03L-56.61 2.03Q-52.51 2.03-50.20 3.80Q-47.90 5.57-47.90 9.11L-47.90 9.11Q-47.90 10.85-49.00 12.23Q-50.11 13.60-51.92 14.27L-51.92 14.27Q-50.34 14.59-49.21 15.53Q-48.08 16.48-47.46 17.83Q-46.84 19.19-46.84 20.81L-46.84 20.81Q-46.84 24.40-49.17 26.30Q-51.51 28.19-55.50 28.19L-55.50 28.19ZM-61.43 15.92L-61.43 25.43L-55.50 25.43Q-53.07 25.43-51.73 24.23Q-50.39 23.04-50.39 20.84L-50.39 20.84Q-50.39 19.30-50.89 18.20Q-51.38 17.11-52.40 16.51Q-53.41 15.92-54.96 15.92L-54.96 15.92L-61.43 15.92ZM-61.43 4.82L-61.43 13.15L-55.69 13.15Q-53.79 13.15-52.61 12.05Q-51.44 10.94-51.44 9.04L-51.44 9.04Q-51.44 6.92-52.77 5.87Q-54.09 4.82-56.61 4.82L-56.61 4.82L-61.43 4.82Z"/><path fill="#ffffff" opacity="1" d="M-31.73 28.57L-31.73 28.57Q-34.42 28.57-36.42 27.34Q-38.41 26.11-39.50 23.92Q-40.59 21.73-40.59 18.85L-40.59 18.85L-40.59 18.06Q-40.59 15.29-39.44 13.11Q-38.30 10.93-36.41 9.66Q-34.51 8.39-32.27 8.39L-32.27 8.39Q-29.64 8.39-27.87 9.47Q-26.10 10.55-25.20 12.50Q-24.31 14.45-24.31 17.09L-24.31 17.09L-24.31 19.30L-36.92 19.30L-36.97 19.39Q-36.94 21.26-36.32 22.70Q-35.70 24.15-34.53 24.98Q-33.36 25.80-31.73 25.80L-31.73 25.80Q-29.93 25.80-28.57 25.29Q-27.22 24.78-26.23 23.88L-26.23 23.88L-24.85 26.18Q-25.89 27.19-27.60 27.88Q-29.32 28.57-31.73 28.57ZM-36.85 16.44L-36.81 16.53L-27.85 16.53L-27.85 16.07Q-27.85 14.66-28.34 13.56Q-28.83 12.45-29.81 11.82Q-30.79 11.18-32.27 11.18L-32.27 11.18Q-33.45 11.18-34.42 11.87Q-35.39 12.56-36.02 13.75Q-36.65 14.93-36.85 16.44L-36.85 16.44Z"/><path fill="#ffffff" opacity="1" d="M-11.32 28.57L-11.32 28.57Q-14.36 28.57-15.94 27.09Q-17.52 25.61-17.52 22.91L-17.52 22.91Q-17.52 21.06-16.50 19.69Q-15.49 18.31-13.56 17.55Q-11.64 16.78-8.96 16.78L-8.96 16.78L-5.50 16.78L-5.50 14.88Q-5.50 13.12-6.57 12.15Q-7.63 11.18-9.58 11.18L-9.58 11.18Q-10.80 11.18-11.70 11.47Q-12.59 11.77-13.33 12.29L-13.33 12.29L-13.71 15.00L-16.44 15.00L-16.44 10.55Q-15.13 9.49-13.38 8.94Q-11.64 8.39-9.52 8.39L-9.52 8.39Q-5.98 8.39-3.97 10.08Q-1.96 11.77-1.96 14.92L-1.96 14.92L-1.96 24.28Q-1.96 24.65-1.95 25.01Q-1.94 25.37-1.90 25.73L-1.90 25.73L-0.02 25.93L-0.02 28.19L-5.10 28.19Q-5.26 27.40-5.35 26.77Q-5.44 26.15-5.48 25.52L-5.48 25.52Q-6.50 26.83-8.04 27.70Q-9.58 28.57-11.32 28.57ZM-10.80 25.61L-10.80 25.61Q-9.04 25.61-7.58 24.76Q-6.13 23.92-5.50 22.73L-5.50 22.73L-5.50 19.21L-9.09 19.21Q-11.53 19.21-12.76 20.38Q-13.98 21.55-13.98 22.98L-13.98 22.98Q-13.98 24.26-13.19 24.93Q-12.40 25.61-10.80 25.61Z"/><path fill="#ffffff" opacity="1" d="M14.97 28.57L14.97 28.57Q11.80 28.57 10.02 26.54Q8.25 24.51 8.25 20.22L8.25 20.22L8.25 11.54L6.02 11.03L6.02 8.75L8.25 8.75L11.79 8.75L11.79 20.25Q11.79 23.36 12.70 24.53Q13.62 25.70 15.56 25.70L15.56 25.70Q17.45 25.70 18.68 24.93Q19.91 24.17 20.54 22.77L20.54 22.77L20.54 11.54L17.93 11.03L17.93 8.75L20.54 8.75L24.08 8.75L24.08 25.43L26.30 25.93L26.30 28.19L20.90 28.19L20.66 25.32Q19.75 26.88 18.30 27.73Q16.85 28.57 14.97 28.57Z"/><path fill="#ffffff" opacity="1" d="M39.33 28.50L39.33 28.50Q37.17 28.50 35.91 27.23Q34.64 25.97 34.64 23.18L34.64 23.18L34.64 11.38L31.57 11.38L31.57 8.75L34.64 8.75L34.64 4.06L38.18 4.06L38.18 8.75L42.40 8.75L42.40 11.38L38.18 11.38L38.18 23.18Q38.18 24.58 38.74 25.25Q39.29 25.91 40.23 25.91L40.23 25.91Q40.86 25.91 41.63 25.80Q42.40 25.68 42.83 25.59L42.83 25.59L43.32 27.91Q42.54 28.14 41.42 28.32Q40.30 28.50 39.33 28.50Z"/><path fill="#ffffff" opacity="1" d="M53.48 36.05L53.48 36.05Q53.07 36.05 52.41 35.95Q51.74 35.85 51.38 35.76L51.38 35.76L51.74 32.97Q52.05 33.01 52.59 33.04Q53.12 33.06 53.32 33.06L53.32 33.06Q54.45 33.06 55.16 32.20Q55.87 31.34 56.48 29.85L56.48 29.85L57.33 27.80L50.45 11.32L48.36 11.03L48.36 8.75L56.52 8.75L56.52 11.03L54.17 11.39L57.96 21.11L58.87 23.65L58.98 23.65L63.47 11.39L60.99 11.03L60.99 8.75L68.99 8.75L68.99 11.03L66.98 11.32L59.32 31.18Q58.78 32.58 58.02 33.68Q57.26 34.79 56.15 35.42Q55.05 36.05 53.48 36.05Z"/></g><g transform="matrix(1 0 0 1 253.01997214520816 416.7557825489395)" style=""  ><path fill="#ffffff" opacity="1" d="M-80.41 4.40L-80.41 4.40Q-81.39 4.40-82.14 4.02Q-82.90 3.64-83.32 2.92Q-83.74 2.19-83.74 1.15L-83.74 1.15L-83.74-4.87L-84.82-4.91L-84.82-5.38L-82.09-5.38L-82.09-4.91L-83.17-4.87L-83.17 1.15Q-83.17 2.02-82.82 2.63Q-82.47 3.24-81.84 3.56Q-81.22 3.88-80.40 3.88L-80.40 3.88Q-79.59 3.88-78.97 3.56Q-78.34 3.24-77.99 2.63Q-77.64 2.02-77.64 1.15L-77.64 1.15L-77.64-4.87L-78.72-4.91L-78.72-5.38L-75.99-5.38L-75.99-4.91L-77.07-4.87L-77.07 1.15Q-77.07 2.21-77.49 2.93Q-77.91 3.65-78.66 4.02Q-79.42 4.40-80.41 4.40Z"/><path fill="#ffffff" opacity="1" d="M-70.23 4.26L-72.97 4.26L-72.97 3.79L-71.89 3.75L-71.89-4.87L-72.97-4.91L-72.97-5.38L-71.89-5.38L-71.31-5.38L-65.47 3.24L-65.43 3.23L-65.43-4.87L-66.52-4.91L-66.52-5.38L-64.87-5.38L-63.79-5.38L-63.79-4.91L-64.87-4.87L-64.87 4.26L-65.43 4.26L-71.29-4.38L-71.33-4.37L-71.33 3.75L-70.23 3.79L-70.23 4.26Z"/><path fill="#ffffff" opacity="1" d="M-54.19 4.26L-60.71 4.26L-60.71 3.79L-59.63 3.75L-59.63-4.87L-60.71-4.91L-60.71-5.38L-59.63-5.38L-59.05-5.38L-57.97-5.38L-57.97-4.91L-59.05-4.87L-59.05 3.75L-54.74 3.75L-54.70 2.19L-54.19 2.19L-54.19 4.26Z"/><path fill="#ffffff" opacity="1" d="M-46.96 4.40L-46.96 4.40Q-47.87 4.40-48.61 4.04Q-49.35 3.69-49.88 3.05Q-50.41 2.40-50.70 1.50Q-50.99 0.60-50.99-0.50L-50.99-0.50L-50.99-0.62Q-50.99-1.72-50.70-2.62Q-50.42-3.52-49.89-4.17Q-49.35-4.81-48.62-5.16Q-47.88-5.52-46.97-5.52L-46.97-5.52Q-46.05-5.52-45.31-5.16Q-44.57-4.81-44.04-4.17Q-43.51-3.52-43.22-2.62Q-42.94-1.72-42.94-0.62L-42.94-0.62L-42.94-0.50Q-42.94 0.60-43.22 1.51Q-43.51 2.41-44.03 3.05Q-44.56 3.69-45.30 4.04Q-46.05 4.40-46.96 4.40ZM-46.96 3.87L-46.96 3.87Q-45.88 3.87-45.11 3.33Q-44.34 2.79-43.93 1.80Q-43.52 0.82-43.52-0.50L-43.52-0.50L-43.52-0.63Q-43.52-1.94-43.93-2.92Q-44.35-3.90-45.12-4.44Q-45.89-4.99-46.97-4.99L-46.97-4.99Q-48.03-4.99-48.80-4.44Q-49.57-3.90-49.99-2.92Q-50.41-1.94-50.41-0.63L-50.41-0.63L-50.41-0.50Q-50.41 0.82-49.99 1.80Q-49.57 2.78-48.79 3.33Q-48.02 3.87-46.96 3.87Z"/><path fill="#ffffff" opacity="1" d="M-34.76 4.40L-34.76 4.40Q-36.17 4.40-37.14 3.77Q-38.12 3.15-38.63 2.05Q-39.14 0.95-39.14-0.50L-39.14-0.50L-39.14-0.62Q-39.14-2.07-38.62-3.17Q-38.09-4.27-37.14-4.89Q-36.19-5.52-34.92-5.52L-34.92-5.52Q-33.90-5.52-33.20-5.24Q-32.51-4.97-31.94-4.47L-31.94-4.47L-31.94-2.68L-32.46-2.68L-32.49-4.23Q-32.82-4.48-33.16-4.65Q-33.50-4.81-33.92-4.90Q-34.34-4.99-34.92-4.99L-34.92-4.99Q-36.01-4.99-36.83-4.44Q-37.65-3.89-38.11-2.91Q-38.56-1.93-38.56-0.63L-38.56-0.63L-38.56-0.50Q-38.56 0.82-38.11 1.81Q-37.66 2.79-36.81 3.33Q-35.95 3.88-34.76 3.88L-34.76 3.88Q-34.09 3.88-33.47 3.71Q-32.85 3.54-32.42 3.25L-32.42 3.25L-32.39 1.75L-31.87 1.75L-31.87 3.60Q-32.47 4.00-33.21 4.20Q-33.94 4.40-34.76 4.40Z"/><path fill="#ffffff" opacity="1" d="M-21.15-4.87L-26.95 1.62L-27.21 1.12L-21.88-4.85L-21.88-4.89L-22.90-4.91L-22.90-5.38L-20.36-5.38L-20.36-4.91L-21.15-4.87ZM-25.76 4.26L-28.49 4.26L-28.49 3.79L-27.42 3.75L-27.42-4.87L-28.49-4.91L-28.49-5.38L-25.76-5.38L-25.76-4.91L-26.84-4.87L-26.84 3.75L-25.76 3.79L-25.76 4.26ZM-20.04 4.26L-22.62 4.26L-22.62 3.79L-21.61 3.77L-21.59 3.73L-24.97-0.90L-24.54-1.28L-20.85 3.75L-20.04 3.79L-20.04 4.26Z"/><path fill="#ffffff" opacity="1" d=""/><path fill="#ffffff" opacity="1" d="M-5.99 4.26L-8.73 4.26L-8.73 3.79L-7.65 3.75L-7.65 0.63L-10.95-4.88L-11.75-4.91L-11.75-5.38L-9.32-5.38L-9.32-4.91L-10.29-4.88L-7.53-0.16L-7.37 0.15L-7.36 0.13L-7.20-0.16L-4.41-4.88L-5.39-4.91L-5.39-5.38L-2.98-5.38L-2.98-4.91L-3.78-4.88L-7.07 0.61L-7.07 3.75L-5.99 3.79L-5.99 4.26Z"/><path fill="#ffffff" opacity="1" d="M4.01 4.40L4.01 4.40Q3.11 4.40 2.37 4.04Q1.63 3.69 1.09 3.05Q0.56 2.40 0.27 1.50Q-0.01 0.60-0.01-0.50L-0.01-0.50L-0.01-0.62Q-0.01-1.72 0.27-2.62Q0.55-3.52 1.09-4.17Q1.62-4.81 2.36-5.16Q3.09-5.52 4.00-5.52L4.00-5.52Q4.92-5.52 5.66-5.16Q6.40-4.81 6.94-4.17Q7.47-3.52 7.75-2.62Q8.04-1.72 8.04-0.62L8.04-0.62L8.04-0.50Q8.04 0.60 7.75 1.51Q7.47 2.41 6.94 3.05Q6.42 3.69 5.67 4.04Q4.93 4.40 4.01 4.40ZM4.01 3.87L4.01 3.87Q5.09 3.87 5.86 3.33Q6.63 2.79 7.04 1.80Q7.45 0.82 7.45-0.50L7.45-0.50L7.45-0.63Q7.45-1.94 7.04-2.92Q6.63-3.90 5.85-4.44Q5.08-4.99 4.00-4.99L4.00-4.99Q2.95-4.99 2.18-4.44Q1.41-3.90 0.99-2.92Q0.57-1.94 0.57-0.63L0.57-0.63L0.57-0.50Q0.57 0.82 0.99 1.80Q1.41 2.78 2.18 3.33Q2.96 3.87 4.01 3.87Z"/><path fill="#ffffff" opacity="1" d="M15.79 4.40L15.79 4.40Q14.80 4.40 14.05 4.02Q13.30 3.64 12.88 2.92Q12.45 2.19 12.45 1.15L12.45 1.15L12.45-4.87L11.37-4.91L11.37-5.38L14.11-5.38L14.11-4.91L13.03-4.87L13.03 1.15Q13.03 2.02 13.38 2.63Q13.73 3.24 14.35 3.56Q14.97 3.88 15.79 3.88L15.79 3.88Q16.60 3.88 17.23 3.56Q17.85 3.24 18.20 2.63Q18.55 2.02 18.55 1.15L18.55 1.15L18.55-4.87L17.47-4.91L17.47-5.38L20.21-5.38L20.21-4.91L19.13-4.87L19.13 1.15Q19.13 2.21 18.71 2.93Q18.29 3.65 17.53 4.02Q16.78 4.40 15.79 4.40Z"/><path fill="#ffffff" opacity="1" d="M25.95 4.26L23.22 4.26L23.22 3.79L24.30 3.75L24.30-4.86L23.22-4.90L23.22-5.37L27.19-5.37Q28.22-5.37 28.93-5.07Q29.64-4.77 30.01-4.20Q30.37-3.62 30.37-2.77L30.37-2.77Q30.37-1.95 29.98-1.38Q29.59-0.81 28.88-0.52Q28.18-0.22 27.23-0.22L27.23-0.22L24.88-0.21L24.88 3.75L25.95 3.79L25.95 4.26ZM30.99 4.26L29.76 4.26L27.71-0.51L28.29-0.51L30.16 3.76L30.99 3.79L30.99 4.26ZM24.88-4.86L24.88-0.73L27.14-0.73Q28.51-0.73 29.16-1.30Q29.80-1.87 29.80-2.77L29.80-2.77Q29.80-3.78 29.15-4.32Q28.49-4.86 27.19-4.86L27.19-4.86L24.88-4.86Z"/><path fill="#ffffff" opacity="1" d=""/><path fill="#ffffff" opacity="1" d="M44.34 4.40L44.34 4.40Q43.02 4.40 42.06 3.78Q41.10 3.16 40.59 2.05Q40.07 0.95 40.07-0.50L40.07-0.50L40.07-0.73Q40.07-2.15 40.61-3.23Q41.14-4.30 42.08-4.91Q43.01-5.52 44.19-5.52L44.19-5.52Q45.24-5.52 45.97-5.24Q46.70-4.97 47.28-4.52L47.28-4.52L47.28-2.78L46.76-2.78L46.73-4.25Q46.28-4.59 45.70-4.79Q45.12-4.99 44.23-4.99L44.23-4.99Q43.21-4.99 42.40-4.45Q41.59-3.91 41.12-2.96Q40.65-2.00 40.65-0.75L40.65-0.75L40.65-0.50Q40.65 0.80 41.09 1.78Q41.52 2.77 42.35 3.32Q43.17 3.87 44.33 3.87L44.33 3.87Q45.16 3.87 45.82 3.68Q46.47 3.49 46.94 3.23L46.94 3.23L46.94 0.55L44.91 0.53L44.91 0.04L47.52 0.04L47.52 3.48Q46.95 3.85 46.19 4.12Q45.42 4.40 44.34 4.40Z"/><path fill="#ffffff" opacity="1" d="M57.67 4.26L51.16 4.26L51.16 3.79L52.24 3.75L52.24-4.87L51.16-4.91L51.16-5.38L52.24-5.38L52.82-5.38L53.90-5.38L53.90-4.91L52.82-4.87L52.82 3.75L57.13 3.75L57.17 2.19L57.67 2.19L57.67 4.26Z"/><path fill="#ffffff" opacity="1" d="M64.91 4.40L64.91 4.40Q64.00 4.40 63.26 4.04Q62.52 3.69 61.99 3.05Q61.46 2.40 61.17 1.50Q60.88 0.60 60.88-0.50L60.88-0.50L60.88-0.62Q60.88-1.72 61.16-2.62Q61.45-3.52 61.98-4.17Q62.51-4.81 63.25-5.16Q63.99-5.52 64.90-5.52L64.90-5.52Q65.82-5.52 66.56-5.16Q67.30-4.81 67.83-4.17Q68.36-3.52 68.65-2.62Q68.93-1.72 68.93-0.62L68.93-0.62L68.93-0.50Q68.93 0.60 68.65 1.51Q68.36 2.41 67.84 3.05Q67.31 3.69 66.57 4.04Q65.82 4.40 64.91 4.40ZM64.91 3.87L64.91 3.87Q65.99 3.87 66.76 3.33Q67.53 2.79 67.94 1.80Q68.35 0.82 68.35-0.50L68.35-0.50L68.35-0.63Q68.35-1.94 67.94-2.92Q67.52-3.90 66.75-4.44Q65.97-4.99 64.90-4.99L64.90-4.99Q63.84-4.99 63.07-4.44Q62.30-3.90 61.88-2.92Q61.46-1.94 61.46-0.63L61.46-0.63L61.46-0.50Q61.46 0.82 61.88 1.80Q62.30 2.78 63.08 3.33Q63.85 3.87 64.91 3.87Z"/><path fill="#ffffff" opacity="1" d="M75.83 4.26L75.25 4.26L72.91-4.89L72.20-4.91L72.20-5.38L74.55-5.38L74.55-4.91L73.51-4.87L75.16 1.81L75.55 3.26L75.59 3.26L76.00 1.81L78.30-5.38L78.87-5.38L81.16 1.81L81.57 3.28L81.61 3.28L82.02 1.81L83.66-4.87L82.60-4.91L82.60-5.38L84.93-5.38L84.93-4.91L84.24-4.89L81.92 4.26L81.33 4.26L78.91-3.46L78.60-4.42L78.56-4.42L78.26-3.46L75.83 4.26Z"/></g><g transform="matrix(1.3935613748605302 0 0 1.3935613748605302 249.91570613859895 193.41259354360307)"  >
<path style="stroke: none; stroke-width: 0; stroke-dasharray: none; stroke-linecap: butt; stroke-dashoffset: 0; stroke-linejoin: miter; stroke-miterlimit: 4; fill: rgb(255,255,255); fill-rule: nonzero; opacity: 0.7;"  transform=" translate(-40.99554826880491, -46.022699755511574)" d="M 11.692913 0.03543307 C 10.842519 0.10629921 10.098425 0.81496062 9.9212596 1.6653543 C 9.7795274 2.4803149 9.6377951 3.2598425 9.4606297 4.03937 c -1.8425196 0 -3.7204723 0 -5.562992 0 c -1.027559 0.035433 -1.9488188 1.0275591 -1.9133858 2.0905512 c 0.070866 1.027559 1.0629921 1.9488189 2.0905512 1.9133858 l 4.5354329 0 c -0.2834645 1.2755905 -0.531496 2.586614 -0.7795275 3.968504 c -1.6299212 0 -3.2952755 0 -4.9251967 0 c -1.0629922 0.07087 -1.94881891 1.062992 -1.91338584 2.090551 c 0.0708661 1.062992 1.06299214 1.984252 2.09055114 1.913386 l 4.2165353 0 c -0.1062992 1.240157 -0.1417322 2.586614 -0.1771653 4.003937 c -1.7362204 0 -3.5078739 0 -5.2086613 0 C 0.85039368 20.090551 -0.03543307 21.082677 0 22.110236 c 0.03543307 1.062992 1.0629921 1.948819 2.0905511 1.913386 l 5.1023621 0 c 0.070866 1.452756 0.1771654 2.763779 0.3543307 4.003937 c -1.523622 0 -3.1181101 0 -4.6417321 0 c -1.0629922 0.03543 -1.94881891 1.027559 -1.91338584 2.090551 c 0.0708661 1.062992 1.06299214 1.948819 2.09055114 1.913386 l 5.1732282 0 c 0.3188977 1.381889 0.6732284 2.692913 0.992126 4.003937 c -1.7716535 0 -3.5787401 0 -5.3503936 0 c -1.027559 0.03543 -1.9488188 1.027559 -1.9133858 2.090551 c 0.070866 1.027559 1.0629921 1.948819 2.0905512 1.913386 l 5.9881889 0 c 0.07087 5.952755 0.03543 11.976377 0.03543 17.999999 c -2.0551181 0 -4.1456692 0 -6.2007873 0 c -0.9921259 0.07087 -1.8070866 0.992126 -1.8070866 1.984252 l 0 24.980315 c 0 2.515748 1.0275591 4.358268 2.1259842 5.42126 c 0.8149607 0.850393 1.8779528 1.346456 2.9409449 1.594488 l 9.9212598 0 c 1.204724 -0.141732 2.090551 -0.92126 2.905512 -1.594488 c 1.062992 -1.062992 2.090551 -2.905512 2.090551 -5.42126 l 0 -24.980315 c 0 -1.062992 -0.956693 -1.984252 -2.019685 -1.984252 l -5.988189 0 c 0.03543 -6.023622 -0.03543 -12.047244 0.03543 -17.999999 l 5.952756 0 c 1.062992 0 2.055118 -0.956693 2.055118 -2.019685 c 0 -1.062993 -0.992126 -2.019685 -2.055118 -1.984252 l -5.137795 0 c 0.318897 -1.311024 0.673228 -2.622048 0.956692 -4.003937 l 5.208662 0 c 1.027559 0 2.019685 -0.956693 2.019685 -2.019685 c 0 -1.027559 -0.992126 -1.984252 -2.019685 -1.984252 l -4.464567 0 c 0.177165 -1.240158 0.283464 -2.551181 0.354331 -4.003937 l 5.102362 0 c 1.062992 0 2.019685 -0.956693 2.019685 -1.984252 c 0 -1.062992 -0.956693 -2.019685 -2.019685 -2.019685 l -5.031496 0 c -0.03543 -1.417323 -0.141733 -2.728347 -0.283465 -4.003937 l 4.322835 0 c 1.027559 0.03543 2.019685 -0.92126 2.019685 -1.984252 c 0 -1.062992 -0.992126 -2.019685 -2.019685 -2.019685 l -4.925197 0 C 15.909448 10.629921 15.590551 9.3188975 15.271653 8.043307 l 4.783465 0 c 1.062992 0 2.055118 -0.9566929 2.055118 -2.019685 c 0 -1.0629921 -0.992126 -2.019685 -2.055118 -1.984252 l -5.740158 0 C 14.173228 3.2598425 13.996063 2.4803149 13.85433 1.7007874 C 13.677165 0.70866141 12.685039 -0.07086614 11.692913 0.03543307 z m 22.181102 0 C 32.669291 0.14173228 31.748031 1.5590551 32.173228 2.7283464 l 2.870078 7.6535436 l 0 41.633857 c -1.700787 0 -3.472441 0 -5.173228 0 c -0.992126 0.1063 -1.807086 1.027559 -1.807086 2.019685 l 0 30.968504 c 0 2.515748 1.027559 4.358268 2.125984 5.42126 c 0.779527 0.850393 1.877952 1.346456 2.940945 1.594488 l 9.921259 0 c 1.133858 -0.106299 2.055118 -0.885827 2.905512 -1.594488 c 1.062992 -1.062992 2.090551 -2.905512 2.090551 -5.42126 l 0 -30.968504 c 0 -1.062992 -0.956693 -2.019685 -2.019685 -2.019685 l -6.980315 0 l 0 -41.633857 l 2.870079 -7.6535436 C 42.377952 1.523622 41.31496 0.03543307 40.039369 0.03543307 c -2.055118 0 -4.145669 0 -6.165354 0 z m 34.15748 0 c -1.275591 0 -1.736221 0.42519685 -2.586614 1.06299213 c -0.814961 0.6377952 -1.665355 1.5590551 -2.480315 2.8700787 c -1.629922 2.6220472 -2.940945 6.7322831 -2.940945 13.0039371 l 0 7.051181 c -0.956693 0 -1.984252 1.098425 -1.984252 1.984252 l 0 34.015747 c -0.744095 0 -1.488189 0 -2.19685 0 c -0.992126 0.106299 -1.807087 1.027559 -1.807087 1.984252 l 0 28.027559 c 0 1.027559 0.956693 1.984252 1.984252 1.984252 l 23.988188 0 c 1.027559 0 1.984252 -0.956693 1.984252 -1.984252 l 0 -28.027559 c 0 -1.027559 -0.956693 -1.984252 -1.984252 -1.984252 l -2.019685 0 l 0 -34.015747 c 0 -1.027559 -0.921259 -1.984252 -1.984252 -1.984252 l 0 -6.874016 c 0 -4.03937 -1.346456 -8.0078738 -2.799212 -11.090551 C 72.460628 4.535433 71.716534 3.1889763 71.007873 2.1968504 C 70.192912 0.92125983 69.236219 0.31889763 68.031495 0.03543307 z M 67.712597 4.4645669 c 0.708661 1.1338582 1.38189 2.3031495 1.877953 3.2952755 c 1.27559 2.7283466 2.409449 6.3070866 2.409449 9.3897636 l 0 6.874016 l -7.972441 0 l 0 -7.051181 c 0 -5.704725 1.204724 -9.0708663 2.338582 -10.913386 c 0.354331 -0.6023622 0.885827 -1.1338582 1.346457 -1.5944881 z M 11.976378 11.551181 c 0.637795 2.799213 1.098425 5.77559 1.098425 9.46063 c 0 4.110236 -0.425197 6.980315 -0.992126 9.602362 c -0.566929 -2.622047 -0.992126 -5.492126 -0.992126 -9.602362 c 0 -3.720473 0.389764 -6.661417 0.885827 -9.46063 z m 50.031495 16.476378 l 12.011811 0 l 0 31.996062 l -12.011811 0 z m -29.940945 27.992125 l 11.976378 0 l 0 28.984252 c -0.03543 1.38189 -0.496063 2.267716 -1.452756 3.011811 l -8.964566 0 c -1.098426 -0.637795 -1.559056 -2.055118 -1.559056 -3.011811 z m -25.9724399 5.988189 l 11.9763779 0 l 0 22.996063 c -0.03543 1.38189 -0.496063 2.267716 -1.452756 3.011811 l -8.9645668 0 C 6.555118 87.377952 6.0944881 85.960629 6.0944881 85.003936 z m 51.9448809 2.019685 l 19.948818 0 l 0 23.988189 l -19.948818 0 z" stroke-linecap="round" />
</g>
</svg>